<mxfile host="app.diagrams.net" modified="2024-01-07T15:44:40.070Z" agent="Mozilla/5.0 (Windows NT 10.0; Win64; x64) AppleWebKit/537.36 (KHTML, like Gecko) Chrome/120.0.0.0 Safari/537.36" etag="WfDJ7zsEXGLRx8orfB-j" version="22.1.16" type="device">
  <diagram name="Page-1" id="1L_RZryonPIuAZca4Pg5">
    <mxGraphModel dx="1050" dy="653" grid="0" gridSize="10" guides="1" tooltips="1" connect="1" arrows="1" fold="1" page="1" pageScale="1" pageWidth="827" pageHeight="1169" math="0" shadow="0">
      <root>
        <mxCell id="0" />
        <mxCell id="1" parent="0" />
        <mxCell id="SGLXegf7nnTgLRt6QzFp-1" value="&lt;p style=&quot;border-color: var(--border-color); box-sizing: border-box; margin-top: 0px; line-height: 1.2; color: rgb(33, 37, 41); font-family: system-ui, -apple-system, &amp;quot;Segoe UI&amp;quot;, Roboto, &amp;quot;Helvetica Neue&amp;quot;, &amp;quot;Noto Sans&amp;quot;, &amp;quot;Liberation Sans&amp;quot;, Arial, sans-serif, &amp;quot;Apple Color Emoji&amp;quot;, &amp;quot;Segoe UI Emoji&amp;quot;, &amp;quot;Segoe UI Symbol&amp;quot;, &amp;quot;Noto Color Emoji&amp;quot;; background-color: rgb(255, 255, 255); margin-bottom: 0px !important;&quot;&gt;&lt;kbd style=&quot;border-color: var(--border-color); box-sizing: border-box; font-family: -apple-system, BlinkMacSystemFont, &amp;quot;Segoe UI&amp;quot;, Roboto, Helvetica, Arial, sans-serif, &amp;quot;Apple Color Emoji&amp;quot;, &amp;quot;Segoe UI Emoji&amp;quot;, &amp;quot;Segoe UI Symbol&amp;quot;; padding: 0.1875rem 0.375rem; color: var(--bs-body-bg); background-color: var(--bs-body-color); border-radius: 0.25rem; font-weight: normal;&quot;&gt;τ&lt;sub style=&quot;&quot;&gt;&lt;font style=&quot;font-size: 13.8889px;&quot;&gt;1&lt;/font&gt;&lt;/sub&gt;&lt;/kbd&gt;&lt;/p&gt;" style="shape=process;whiteSpace=wrap;html=1;backgroundOutline=1;fontSize=24;align=center;horizontal=1;verticalAlign=top;" parent="1" vertex="1">
          <mxGeometry x="200" y="162" width="102" height="54" as="geometry" />
        </mxCell>
        <mxCell id="SGLXegf7nnTgLRt6QzFp-2" value="m&lt;sub&gt;1&lt;/sub&gt;" style="whiteSpace=wrap;html=1;aspect=fixed;" parent="1" vertex="1">
          <mxGeometry x="191" y="275" width="30" height="30" as="geometry" />
        </mxCell>
        <mxCell id="SGLXegf7nnTgLRt6QzFp-3" value="m&lt;sub&gt;2&lt;/sub&gt;" style="whiteSpace=wrap;html=1;aspect=fixed;" parent="1" vertex="1">
          <mxGeometry x="221" y="275" width="30" height="30" as="geometry" />
        </mxCell>
        <mxCell id="SGLXegf7nnTgLRt6QzFp-4" value="m&lt;sub&gt;3&lt;/sub&gt;" style="whiteSpace=wrap;html=1;aspect=fixed;" parent="1" vertex="1">
          <mxGeometry x="251" y="275" width="30" height="30" as="geometry" />
        </mxCell>
        <mxCell id="SGLXegf7nnTgLRt6QzFp-5" value="" style="whiteSpace=wrap;html=1;aspect=fixed;" parent="1" vertex="1">
          <mxGeometry x="281" y="275" width="30" height="30" as="geometry" />
        </mxCell>
        <mxCell id="SGLXegf7nnTgLRt6QzFp-6" value="" style="endArrow=classic;startArrow=classic;html=1;rounded=0;exitX=0.5;exitY=0;exitDx=0;exitDy=0;entryX=0.5;entryY=1;entryDx=0;entryDy=0;" parent="1" source="SGLXegf7nnTgLRt6QzFp-3" target="SGLXegf7nnTgLRt6QzFp-1" edge="1">
          <mxGeometry width="50" height="50" relative="1" as="geometry">
            <mxPoint x="339" y="362" as="sourcePoint" />
            <mxPoint x="389" y="312" as="targetPoint" />
          </mxGeometry>
        </mxCell>
        <mxCell id="SGLXegf7nnTgLRt6QzFp-7" value="receive()" style="text;html=1;strokeColor=none;fillColor=none;align=center;verticalAlign=middle;whiteSpace=wrap;rounded=0;" parent="1" vertex="1">
          <mxGeometry x="180" y="228" width="60" height="30" as="geometry" />
        </mxCell>
        <mxCell id="SGLXegf7nnTgLRt6QzFp-8" value="mailbox:" style="text;html=1;strokeColor=none;fillColor=none;align=center;verticalAlign=middle;whiteSpace=wrap;rounded=0;" parent="1" vertex="1">
          <mxGeometry x="131" y="275" width="60" height="30" as="geometry" />
        </mxCell>
        <mxCell id="SGLXegf7nnTgLRt6QzFp-9" value="&lt;p style=&quot;box-sizing: border-box; margin-top: 0px; line-height: 1.2; color: rgb(33, 37, 41); font-family: system-ui, -apple-system, &amp;quot;Segoe UI&amp;quot;, Roboto, &amp;quot;Helvetica Neue&amp;quot;, &amp;quot;Noto Sans&amp;quot;, &amp;quot;Liberation Sans&amp;quot;, Arial, sans-serif, &amp;quot;Apple Color Emoji&amp;quot;, &amp;quot;Segoe UI Emoji&amp;quot;, &amp;quot;Segoe UI Symbol&amp;quot;, &amp;quot;Noto Color Emoji&amp;quot;; background-color: rgb(255, 255, 255); margin-bottom: 0px !important;&quot;&gt;&lt;kbd style=&quot;box-sizing: border-box; font-family: -apple-system, BlinkMacSystemFont, &amp;quot;Segoe UI&amp;quot;, Roboto, Helvetica, Arial, sans-serif, &amp;quot;Apple Color Emoji&amp;quot;, &amp;quot;Segoe UI Emoji&amp;quot;, &amp;quot;Segoe UI Symbol&amp;quot;; padding: 0.1875rem 0.375rem; color: var(--bs-body-bg); background-color: var(--bs-body-color); border-radius: 0.25rem; font-weight: normal;&quot;&gt;&lt;span style=&quot;font-size: 1.5rem;&quot;&gt;τ&lt;/span&gt;&lt;sub style=&quot;&quot;&gt;&lt;font style=&quot;font-size: 13.8889px;&quot;&gt;2&lt;/font&gt;&lt;/sub&gt;&lt;/kbd&gt;&lt;/p&gt;" style="shape=process;whiteSpace=wrap;html=1;backgroundOutline=1;fontSize=24;align=center;horizontal=1;verticalAlign=middle;" parent="1" vertex="1">
          <mxGeometry x="431" y="162" width="102" height="54" as="geometry" />
        </mxCell>
        <mxCell id="SGLXegf7nnTgLRt6QzFp-10" value="" style="whiteSpace=wrap;html=1;aspect=fixed;" parent="1" vertex="1">
          <mxGeometry x="422" y="275" width="30" height="30" as="geometry" />
        </mxCell>
        <mxCell id="SGLXegf7nnTgLRt6QzFp-11" value="" style="whiteSpace=wrap;html=1;aspect=fixed;" parent="1" vertex="1">
          <mxGeometry x="452" y="275" width="30" height="30" as="geometry" />
        </mxCell>
        <mxCell id="SGLXegf7nnTgLRt6QzFp-12" value="" style="whiteSpace=wrap;html=1;aspect=fixed;" parent="1" vertex="1">
          <mxGeometry x="482" y="275" width="30" height="30" as="geometry" />
        </mxCell>
        <mxCell id="SGLXegf7nnTgLRt6QzFp-13" value="" style="whiteSpace=wrap;html=1;aspect=fixed;" parent="1" vertex="1">
          <mxGeometry x="512" y="275" width="30" height="30" as="geometry" />
        </mxCell>
        <mxCell id="SGLXegf7nnTgLRt6QzFp-15" value="&lt;font style=&quot;font-size: 12px;&quot;&gt;send(&lt;span style=&quot;background-color: var(--bs-body-color); color: var(--bs-body-bg); font-family: -apple-system, BlinkMacSystemFont, &amp;quot;Segoe UI&amp;quot;, Roboto, Helvetica, Arial, sans-serif, &amp;quot;Apple Color Emoji&amp;quot;, &amp;quot;Segoe UI Emoji&amp;quot;, &amp;quot;Segoe UI Symbol&amp;quot;;&quot;&gt;τ&lt;/span&gt;&lt;sub style=&quot;background-color: var(--bs-body-color); color: var(--bs-body-bg); font-family: -apple-system, BlinkMacSystemFont, &amp;quot;Segoe UI&amp;quot;, Roboto, Helvetica, Arial, sans-serif, &amp;quot;Apple Color Emoji&amp;quot;, &amp;quot;Segoe UI Emoji&amp;quot;, &amp;quot;Segoe UI Symbol&amp;quot;; border-color: var(--border-color);&quot;&gt;1,&amp;nbsp;&lt;/sub&gt;&lt;/font&gt;&lt;font style=&quot;font-size: 12px;&quot;&gt;m&lt;sub style=&quot;&quot;&gt;4&lt;/sub&gt;)&lt;/font&gt;" style="text;html=1;strokeColor=none;fillColor=none;align=center;verticalAlign=middle;whiteSpace=wrap;rounded=0;" parent="1" vertex="1">
          <mxGeometry x="330" y="216" width="101" height="30" as="geometry" />
        </mxCell>
        <mxCell id="SGLXegf7nnTgLRt6QzFp-16" value="mailbox:" style="text;html=1;strokeColor=none;fillColor=none;align=center;verticalAlign=middle;whiteSpace=wrap;rounded=0;" parent="1" vertex="1">
          <mxGeometry x="362" y="275" width="60" height="30" as="geometry" />
        </mxCell>
        <mxCell id="SGLXegf7nnTgLRt6QzFp-17" value="" style="endArrow=classic;html=1;rounded=0;exitX=0.5;exitY=1;exitDx=0;exitDy=0;entryX=1;entryY=0.5;entryDx=0;entryDy=0;" parent="1" source="SGLXegf7nnTgLRt6QzFp-9" target="SGLXegf7nnTgLRt6QzFp-5" edge="1">
          <mxGeometry width="50" height="50" relative="1" as="geometry">
            <mxPoint x="345" y="203" as="sourcePoint" />
            <mxPoint x="395" y="153" as="targetPoint" />
          </mxGeometry>
        </mxCell>
      </root>
    </mxGraphModel>
  </diagram>
</mxfile>
